<svg xmlns="http://www.w3.org/2000/svg" width="375" viewBox="0 0 375 187.5" height="187.5" version="1.0"><defs><clipPath id="a"><path d="M 144.5625 3.078125 L 230.585938 3.078125 L 230.585938 74.886719 L 144.5625 74.886719 Z M 144.5625 3.078125"/></clipPath></defs><path fill="#BD9D60" d="M 23.835938 87.652344 L 12.011719 99.46875 L 12.011719 139.421875 L 23.835938 151.234375 L 350.964844 151.234375 L 362.789062 139.421875 L 362.789062 99.46875 L 350.964844 87.652344 L 23.835938 87.652344 M 24.894531 89.859375 L 349.90625 89.859375 L 360.582031 100.523438 L 360.582031 138.367188 L 349.90625 149.027344 L 24.894531 149.027344 L 14.21875 138.367188 L 14.21875 100.523438 L 24.894531 89.859375"/><g fill="#D6AD60"><g><g><path d="M 1.96875 0.21875 C 1.320312 0.21875 1 0.0351562 1 -0.328125 C 1 -0.609375 1.175781 -0.75 1.53125 -0.75 L 2.265625 -0.671875 C 2.847656 -0.671875 3.242188 -1.003906 3.453125 -1.671875 C 3.617188 -2.234375 3.703125 -3.238281 3.703125 -4.6875 L 3.703125 -15.109375 C 3.703125 -16.554688 3.632812 -17.503906 3.5 -17.953125 C 3.363281 -18.398438 3.195312 -18.703125 3 -18.859375 C 2.8125 -19.023438 2.566406 -19.109375 2.265625 -19.109375 L 1.53125 -19.046875 C 1.175781 -19.046875 1 -19.191406 1 -19.484375 C 1 -19.847656 1.257812 -20.03125 1.78125 -20.03125 C 2.3125 -20.03125 2.742188 -20.015625 3.078125 -19.984375 C 3.421875 -19.960938 3.765625 -19.9375 4.109375 -19.90625 C 5.015625 -19.832031 5.695312 -19.796875 6.15625 -19.796875 C 6.625 -19.796875 7.125 -19.804688 7.65625 -19.828125 C 8.1875 -19.847656 8.796875 -19.875 9.484375 -19.90625 C 11.328125 -19.988281 12.609375 -20.03125 13.328125 -20.03125 C 14.046875 -20.03125 14.445312 -19.984375 14.53125 -19.890625 C 14.613281 -19.804688 14.65625 -19.6875 14.65625 -19.53125 C 14.65625 -19.382812 14.648438 -19.238281 14.640625 -19.09375 C 14.640625 -18.957031 14.632812 -18.804688 14.625 -18.640625 C 14.613281 -18.410156 14.582031 -18.070312 14.53125 -17.625 C 14.476562 -17.175781 14.414062 -16.875 14.34375 -16.71875 C 14.28125 -16.570312 14.1875 -16.5 14.0625 -16.5 C 13.9375 -16.5 13.847656 -16.53125 13.796875 -16.59375 C 13.742188 -16.65625 13.675781 -16.800781 13.59375 -17.03125 C 13.507812 -17.269531 13.359375 -17.492188 13.140625 -17.703125 C 12.929688 -17.910156 12.597656 -18.085938 12.140625 -18.234375 C 11.265625 -18.492188 9.628906 -18.625 7.234375 -18.625 L 6.515625 -18.625 C 6.273438 -18.625 6.125 -18.585938 6.0625 -18.515625 C 6 -18.453125 5.96875 -18.296875 5.96875 -18.046875 L 5.96875 -11.5 C 6.90625 -11.394531 7.742188 -11.34375 8.484375 -11.34375 C 9.222656 -11.34375 9.753906 -11.347656 10.078125 -11.359375 C 10.410156 -11.367188 10.6875 -11.394531 10.90625 -11.4375 C 11.289062 -11.507812 11.566406 -11.6875 11.734375 -11.96875 C 12.066406 -12.488281 12.335938 -12.75 12.546875 -12.75 C 12.804688 -12.75 12.9375 -12.609375 12.9375 -12.328125 L 12.421875 -10.234375 L 12.484375 -9.109375 C 12.484375 -8.398438 12.316406 -8.046875 11.984375 -8.046875 C 11.691406 -8.046875 11.546875 -8.234375 11.546875 -8.609375 C 11.546875 -8.992188 11.523438 -9.28125 11.484375 -9.46875 C 11.441406 -9.65625 11.316406 -9.796875 11.109375 -9.890625 C 10.796875 -10.054688 9.925781 -10.140625 8.5 -10.140625 C 8.46875 -10.140625 7.625 -10.101562 5.96875 -10.03125 L 5.96875 -4.6875 C 5.96875 -3.195312 6.03125 -2.238281 6.15625 -1.8125 C 6.289062 -1.382812 6.453125 -1.085938 6.640625 -0.921875 C 6.835938 -0.753906 7.097656 -0.671875 7.421875 -0.671875 L 8.21875 -0.75 C 8.59375 -0.75 8.78125 -0.609375 8.78125 -0.328125 C 8.78125 0.0351562 8.453125 0.21875 7.796875 0.21875 L 5.015625 0 C 4.296875 0 3.6875 0.0351562 3.1875 0.109375 C 2.6875 0.179688 2.28125 0.21875 1.96875 0.21875 Z M 1.96875 0.21875" transform="translate(143.98 128.698)"/></g></g></g><g fill="#D6AD60"><g><g><path d="M 19.640625 -20.03125 C 20.265625 -20.03125 20.578125 -19.851562 20.578125 -19.5 C 20.578125 -19.15625 20.367188 -18.984375 19.953125 -18.984375 C 19.429688 -18.984375 19.0625 -18.875 18.84375 -18.65625 C 18.445312 -18.28125 18.082031 -17.648438 17.75 -16.765625 L 11.390625 -0.140625 C 11.140625 0.472656 10.914062 0.78125 10.71875 0.78125 C 10.46875 0.78125 10.203125 0.429688 9.921875 -0.265625 L 3.09375 -16.765625 C 2.695312 -17.660156 2.390625 -18.226562 2.171875 -18.46875 C 1.828125 -18.8125 1.425781 -18.984375 0.96875 -18.984375 C 0.519531 -18.984375 0.296875 -19.160156 0.296875 -19.515625 C 0.296875 -19.648438 0.375 -19.769531 0.53125 -19.875 C 0.6875 -19.976562 0.898438 -20.03125 1.171875 -20.03125 C 1.453125 -20.03125 1.679688 -20.015625 1.859375 -19.984375 C 2.035156 -19.960938 2.210938 -19.9375 2.390625 -19.90625 C 2.878906 -19.832031 3.347656 -19.796875 3.796875 -19.796875 C 4.253906 -19.796875 4.734375 -19.832031 5.234375 -19.90625 C 5.742188 -19.988281 6.28125 -20.03125 6.84375 -20.03125 C 7.40625 -20.03125 7.6875 -19.863281 7.6875 -19.53125 C 7.6875 -19.207031 7.472656 -19.046875 7.046875 -19.046875 C 5.953125 -19.046875 5.40625 -18.75 5.40625 -18.15625 C 5.40625 -17.738281 5.601562 -17.0625 6 -16.125 L 11.34375 -3.3125 L 15.96875 -16.078125 C 16.25 -16.878906 16.390625 -17.46875 16.390625 -17.84375 C 16.390625 -18.644531 15.78125 -19.046875 14.5625 -19.046875 C 14.132812 -19.046875 13.921875 -19.207031 13.921875 -19.53125 C 13.921875 -19.863281 14.242188 -20.03125 14.890625 -20.03125 C 15.203125 -20.03125 15.554688 -19.988281 15.953125 -19.90625 C 16.359375 -19.832031 16.847656 -19.796875 17.421875 -19.796875 Z M 19.640625 -20.03125" transform="translate(175.204 128.698)"/></g></g></g><g fill="#D6AD60"><g><g><path d="M 1.96875 0.21875 C 1.320312 0.21875 1 0.0351562 1 -0.328125 C 1 -0.609375 1.175781 -0.75 1.53125 -0.75 L 2.265625 -0.671875 C 2.828125 -0.671875 3.203125 -0.941406 3.390625 -1.484375 C 3.597656 -2.046875 3.703125 -3.113281 3.703125 -4.6875 L 3.703125 -15.109375 C 3.703125 -16.703125 3.617188 -17.707031 3.453125 -18.125 C 3.296875 -18.550781 3.125 -18.820312 2.9375 -18.9375 C 2.75 -19.050781 2.523438 -19.109375 2.265625 -19.109375 L 1.53125 -19.046875 C 1.175781 -19.046875 1 -19.191406 1 -19.484375 C 1 -19.847656 1.269531 -20.03125 1.8125 -20.03125 C 2.351562 -20.03125 2.867188 -19.988281 3.359375 -19.90625 C 3.847656 -19.832031 4.351562 -19.796875 4.875 -19.796875 C 5.40625 -19.796875 5.910156 -19.832031 6.390625 -19.90625 C 6.867188 -19.988281 7.375 -20.03125 7.90625 -20.03125 C 8.445312 -20.03125 8.71875 -19.847656 8.71875 -19.484375 C 8.71875 -19.191406 8.539062 -19.046875 8.1875 -19.046875 L 7.46875 -19.109375 C 6.925781 -19.109375 6.550781 -18.84375 6.34375 -18.3125 C 6.132812 -17.769531 6.03125 -16.703125 6.03125 -15.109375 L 6.03125 -10.421875 L 10.21875 -15.40625 C 11.832031 -17.3125 12.679688 -18.347656 12.765625 -18.515625 C 12.859375 -18.679688 12.90625 -18.800781 12.90625 -18.875 C 12.90625 -18.945312 12.859375 -19 12.765625 -19.03125 C 12.671875 -19.070312 12.566406 -19.109375 12.453125 -19.140625 C 12.148438 -19.203125 12 -19.320312 12 -19.5 C 12 -19.78125 12.21875 -19.921875 12.65625 -19.921875 C 12.789062 -19.921875 12.945312 -19.910156 13.125 -19.890625 C 13.300781 -19.878906 13.476562 -19.867188 13.65625 -19.859375 C 13.832031 -19.847656 14.003906 -19.832031 14.171875 -19.8125 C 14.335938 -19.800781 14.476562 -19.796875 14.59375 -19.796875 C 14.707031 -19.796875 14.859375 -19.804688 15.046875 -19.828125 C 15.234375 -19.847656 15.421875 -19.867188 15.609375 -19.890625 C 15.796875 -19.921875 15.96875 -19.945312 16.125 -19.96875 C 16.289062 -20 16.414062 -20.015625 16.5 -20.015625 C 17.082031 -20.015625 17.375 -19.859375 17.375 -19.546875 C 17.375 -19.367188 17.3125 -19.257812 17.1875 -19.21875 C 17.0625 -19.1875 16.925781 -19.148438 16.78125 -19.109375 C 16.632812 -19.066406 16.429688 -18.988281 16.171875 -18.875 C 15.921875 -18.757812 15.613281 -18.582031 15.25 -18.34375 C 14.894531 -18.113281 14.492188 -17.8125 14.046875 -17.4375 C 13.054688 -16.601562 11.988281 -15.488281 10.84375 -14.09375 L 9 -11.875 L 16.5 -2.484375 C 17.457031 -1.523438 18.257812 -1.007812 18.90625 -0.9375 C 19.25 -0.882812 19.46875 -0.816406 19.5625 -0.734375 C 19.664062 -0.660156 19.71875 -0.5625 19.71875 -0.4375 C 19.71875 -0.144531 19.398438 0 18.765625 0 L 15.765625 0 C 15.234375 0.0195312 14.625 -0.421875 13.9375 -1.328125 L 7.4375 -10.015625 L 6.03125 -8.328125 L 6.03125 -4.6875 C 6.03125 -3.09375 6.109375 -2.082031 6.265625 -1.65625 C 6.429688 -1.226562 6.609375 -0.957031 6.796875 -0.84375 C 6.984375 -0.726562 7.207031 -0.671875 7.46875 -0.671875 L 8.1875 -0.75 C 8.539062 -0.75 8.71875 -0.609375 8.71875 -0.328125 C 8.71875 0.0351562 8.398438 0.21875 7.765625 0.21875 C 7.441406 0.21875 7.097656 0.191406 6.734375 0.140625 C 5.554688 -0.046875 4.546875 -0.0820312 3.703125 0.03125 C 2.859375 0.15625 2.28125 0.21875 1.96875 0.21875 Z M 1.96875 0.21875" transform="translate(211.547 128.698)"/></g></g></g><g clip-path="url(#a)"><path fill="#BD9D60" d="M 229.234375 72.199219 L 226.546875 72.199219 L 226.546875 48.820312 L 215.460938 37.46875 C 214.921875 36.933594 214.117188 36.933594 213.578125 37.46875 C 213.039062 38.007812 213.039062 38.8125 213.578125 39.351562 L 223.859375 49.894531 L 223.859375 72.199219 L 210.417969 72.199219 L 210.417969 26.652344 L 187.574219 3.078125 L 164.726562 26.652344 L 164.726562 72.199219 L 151.289062 72.199219 L 151.289062 49.894531 L 161.570312 39.28125 C 162.109375 38.746094 162.109375 37.871094 161.570312 37.402344 C 161.03125 36.863281 160.160156 36.863281 159.6875 37.402344 L 148.601562 48.820312 L 148.601562 72.199219 L 145.914062 72.199219 C 145.175781 72.199219 144.570312 72.800781 144.570312 73.542969 C 144.570312 74.28125 145.175781 74.886719 145.914062 74.886719 L 229.234375 74.886719 C 229.972656 74.886719 230.578125 74.28125 230.578125 73.542969 C 230.578125 72.800781 229.972656 72.199219 229.234375 72.199219 Z M 176.824219 24.503906 C 176.082031 24.503906 175.480469 25.109375 175.480469 25.847656 L 175.480469 72.199219 L 167.414062 72.199219 L 167.414062 27.730469 L 186.230469 8.316406 L 186.230469 72.199219 L 178.167969 72.199219 L 178.167969 25.847656 C 178.167969 25.109375 177.5625 24.503906 176.824219 24.503906 Z M 198.324219 24.503906 C 197.585938 24.503906 196.980469 25.109375 196.980469 25.847656 L 196.980469 72.199219 L 188.917969 72.199219 L 188.917969 8.316406 L 207.730469 27.730469 L 207.730469 72.199219 L 199.667969 72.199219 L 199.667969 25.847656 C 199.667969 25.109375 199.0625 24.503906 198.324219 24.503906 Z M 198.324219 24.503906"/></g><g fill="#BD9D60"><g><g><path d="M 1.015625 0.125 C 0.710938 0.125 0.5625 0.0195312 0.5625 -0.1875 C 0.5625 -0.34375 0.660156 -0.421875 0.859375 -0.421875 L 1.265625 -0.375 C 1.585938 -0.375 1.804688 -0.5625 1.921875 -0.9375 C 2.015625 -1.25 2.0625 -1.804688 2.0625 -2.609375 L 2.0625 -8.421875 C 2.0625 -9.222656 2.019531 -9.75 1.9375 -10 C 1.863281 -10.25 1.773438 -10.421875 1.671875 -10.515625 C 1.566406 -10.609375 1.429688 -10.65625 1.265625 -10.65625 L 0.859375 -10.625 C 0.660156 -10.625 0.5625 -10.703125 0.5625 -10.859375 C 0.5625 -11.054688 0.710938 -11.15625 1.015625 -11.15625 C 1.316406 -11.15625 1.601562 -11.132812 1.875 -11.09375 C 2.144531 -11.050781 2.425781 -11.03125 2.71875 -11.03125 C 3.007812 -11.03125 3.285156 -11.050781 3.546875 -11.09375 C 3.816406 -11.132812 4.101562 -11.15625 4.40625 -11.15625 C 4.707031 -11.15625 4.859375 -11.054688 4.859375 -10.859375 C 4.859375 -10.703125 4.757812 -10.625 4.5625 -10.625 L 4.171875 -10.65625 C 3.828125 -10.65625 3.597656 -10.46875 3.484375 -10.09375 C 3.398438 -9.8125 3.359375 -9.253906 3.359375 -8.421875 L 3.359375 -3.765625 C 3.359375 -2.566406 3.382812 -1.570312 3.4375 -0.78125 C 3.84375 -0.675781 4.285156 -0.625 4.765625 -0.625 C 5.253906 -0.625 5.675781 -0.648438 6.03125 -0.703125 C 6.394531 -0.753906 6.707031 -0.835938 6.96875 -0.953125 C 7.46875 -1.148438 7.851562 -1.488281 8.125 -1.96875 C 8.238281 -2.164062 8.347656 -2.265625 8.453125 -2.265625 C 8.566406 -2.265625 8.625 -2.1875 8.625 -2.03125 C 8.625 -1.96875 8.601562 -1.882812 8.5625 -1.78125 C 8.519531 -1.632812 8.457031 -1.421875 8.375 -1.140625 C 8.289062 -0.859375 8.222656 -0.640625 8.171875 -0.484375 C 8.117188 -0.335938 8.0625 -0.210938 8 -0.109375 C 7.863281 0.078125 7.675781 0.171875 7.4375 0.171875 C 7.207031 0.171875 6.988281 0.164062 6.78125 0.15625 C 6.570312 0.15625 6.351562 0.148438 6.125 0.140625 C 5.894531 0.128906 5.648438 0.117188 5.390625 0.109375 C 5.128906 0.0976562 4.832031 0.0820312 4.5 0.0625 C 4.164062 0.0507812 3.875 0.0351562 3.625 0.015625 C 3.375 0.00390625 3.125 0 2.875 0 C 2.632812 0 2.429688 0.00390625 2.265625 0.015625 C 2.109375 0.0351562 1.960938 0.0507812 1.828125 0.0625 C 1.703125 0.0703125 1.578125 0.0820312 1.453125 0.09375 C 1.328125 0.113281 1.179688 0.125 1.015625 0.125 Z M 1.015625 0.125" transform="translate(143.823 178.102)"/></g></g></g><g fill="#BD9D60"><g><g><path d="M 4.453125 -10.625 L 4.046875 -10.65625 C 3.710938 -10.65625 3.484375 -10.46875 3.359375 -10.09375 C 3.253906 -9.769531 3.203125 -9.210938 3.203125 -8.421875 L 3.203125 -4.359375 C 3.203125 -3.585938 3.257812 -3.035156 3.375 -2.703125 C 3.488281 -2.378906 3.644531 -2.078125 3.84375 -1.796875 C 4.039062 -1.523438 4.273438 -1.296875 4.546875 -1.109375 C 5.085938 -0.722656 5.695312 -0.53125 6.375 -0.53125 C 7.0625 -0.53125 7.628906 -0.609375 8.078125 -0.765625 C 8.523438 -0.929688 8.878906 -1.175781 9.140625 -1.5 C 9.628906 -2.09375 9.875 -3.054688 9.875 -4.390625 L 9.859375 -8.421875 C 9.859375 -9.222656 9.816406 -9.75 9.734375 -10 C 9.660156 -10.25 9.566406 -10.421875 9.453125 -10.515625 C 9.347656 -10.609375 9.210938 -10.65625 9.046875 -10.65625 L 8.640625 -10.625 C 8.441406 -10.625 8.34375 -10.703125 8.34375 -10.859375 C 8.34375 -11.054688 8.492188 -11.15625 8.796875 -11.15625 C 9.097656 -11.15625 9.359375 -11.132812 9.578125 -11.09375 C 9.804688 -11.050781 10.046875 -11.03125 10.296875 -11.03125 L 11.65625 -11.15625 C 12.007812 -11.15625 12.1875 -11.054688 12.1875 -10.859375 C 12.1875 -10.703125 12.085938 -10.625 11.890625 -10.625 L 11.484375 -10.65625 C 11.148438 -10.65625 10.929688 -10.46875 10.828125 -10.09375 C 10.734375 -9.78125 10.6875 -9.222656 10.6875 -8.421875 L 10.671875 -3.96875 C 10.671875 -2.75 10.28125 -1.75 9.5 -0.96875 C 8.71875 -0.1875 7.671875 0.203125 6.359375 0.203125 C 4.941406 0.203125 3.820312 -0.1875 3 -0.96875 C 2.15625 -1.78125 1.734375 -2.910156 1.734375 -4.359375 L 1.734375 -8.421875 C 1.734375 -9.210938 1.691406 -9.734375 1.609375 -9.984375 C 1.523438 -10.242188 1.425781 -10.421875 1.3125 -10.515625 C 1.207031 -10.609375 1.066406 -10.65625 0.890625 -10.65625 L 0.5 -10.625 C 0.300781 -10.625 0.203125 -10.703125 0.203125 -10.859375 C 0.203125 -11.054688 0.351562 -11.15625 0.65625 -11.15625 C 0.957031 -11.15625 1.253906 -11.132812 1.546875 -11.09375 C 1.835938 -11.050781 2.144531 -11.03125 2.46875 -11.03125 C 2.789062 -11.03125 3.097656 -11.050781 3.390625 -11.09375 C 3.691406 -11.132812 3.988281 -11.15625 4.28125 -11.15625 C 4.582031 -11.15625 4.734375 -11.054688 4.734375 -10.859375 C 4.734375 -10.703125 4.640625 -10.625 4.453125 -10.625 Z M 4.453125 -10.625" transform="translate(157.169 178.102)"/></g></g></g><g fill="#BD9D60"><g><g><path d="M 0.8125 0.125 C 0.457031 0.125 0.28125 0.03125 0.28125 -0.15625 C 0.28125 -0.34375 0.390625 -0.441406 0.609375 -0.453125 C 0.828125 -0.460938 1.015625 -0.5 1.171875 -0.5625 C 1.335938 -0.632812 1.5 -0.742188 1.65625 -0.890625 C 1.925781 -1.140625 2.296875 -1.644531 2.765625 -2.40625 L 4.703125 -5.65625 L 2.53125 -9.296875 C 2.226562 -9.816406 2.007812 -10.144531 1.875 -10.28125 C 1.664062 -10.488281 1.429688 -10.59375 1.171875 -10.59375 C 0.910156 -10.59375 0.78125 -10.6875 0.78125 -10.875 C 0.78125 -11.0625 0.957031 -11.15625 1.3125 -11.15625 L 2.75 -11.03125 C 3 -11.03125 3.234375 -11.050781 3.453125 -11.09375 C 3.679688 -11.132812 3.882812 -11.15625 4.0625 -11.15625 C 4.40625 -11.15625 4.578125 -11.070312 4.578125 -10.90625 C 4.578125 -10.78125 4.53125 -10.703125 4.4375 -10.671875 C 4.351562 -10.640625 4.25 -10.613281 4.125 -10.59375 C 4.007812 -10.582031 3.90625 -10.5625 3.8125 -10.53125 C 3.726562 -10.507812 3.6875 -10.445312 3.6875 -10.34375 C 3.6875 -10.132812 3.789062 -9.847656 4 -9.484375 L 5.484375 -6.953125 L 7 -9.453125 C 7.226562 -9.847656 7.34375 -10.109375 7.34375 -10.234375 C 7.34375 -10.492188 7.128906 -10.625 6.703125 -10.625 C 6.503906 -10.625 6.40625 -10.703125 6.40625 -10.859375 C 6.40625 -11.054688 6.585938 -11.15625 6.953125 -11.15625 L 8.03125 -11.046875 C 8.320312 -11.046875 8.582031 -11.0625 8.8125 -11.09375 C 9.039062 -11.132812 9.222656 -11.15625 9.359375 -11.15625 C 9.703125 -11.15625 9.875 -11.054688 9.875 -10.859375 C 9.875 -10.671875 9.765625 -10.578125 9.546875 -10.578125 C 9.335938 -10.578125 9.15625 -10.554688 9 -10.515625 C 8.84375 -10.472656 8.6875 -10.378906 8.53125 -10.234375 C 8.21875 -9.960938 7.835938 -9.425781 7.390625 -8.625 L 5.9375 -6.203125 L 8.4375 -1.984375 C 9.050781 -0.972656 9.644531 -0.46875 10.21875 -0.46875 C 10.445312 -0.46875 10.5625 -0.367188 10.5625 -0.171875 C 10.5625 0.0234375 10.390625 0.125 10.046875 0.125 C 9.910156 0.125 9.789062 0.113281 9.6875 0.09375 C 9.59375 0.0820312 9.492188 0.0703125 9.390625 0.0625 C 9.097656 0.0195312 8.832031 0 8.59375 0 L 7.21875 0.125 C 6.863281 0.125 6.6875 0.0195312 6.6875 -0.1875 C 6.6875 -0.34375 6.765625 -0.421875 6.921875 -0.421875 C 7.085938 -0.421875 7.207031 -0.425781 7.28125 -0.4375 C 7.351562 -0.457031 7.40625 -0.476562 7.4375 -0.5 C 7.5 -0.539062 7.53125 -0.613281 7.53125 -0.71875 C 7.507812 -0.726562 7.476562 -0.816406 7.4375 -0.984375 C 7.394531 -1.148438 7.28125 -1.390625 7.09375 -1.703125 L 5.15625 -4.890625 L 3.171875 -1.578125 C 2.941406 -1.179688 2.828125 -0.921875 2.828125 -0.796875 C 2.828125 -0.546875 3.039062 -0.421875 3.46875 -0.421875 C 3.664062 -0.421875 3.765625 -0.34375 3.765625 -0.1875 C 3.765625 0.0195312 3.585938 0.125 3.234375 0.125 L 2.140625 0 C 1.867188 0 1.609375 0.0195312 1.359375 0.0625 C 1.109375 0.101562 0.925781 0.125 0.8125 0.125 Z M 0.8125 0.125" transform="translate(173.88 178.102)"/></g></g></g><g fill="#BD9D60"><g><g><path d="M 4.453125 -10.625 L 4.046875 -10.65625 C 3.710938 -10.65625 3.484375 -10.46875 3.359375 -10.09375 C 3.253906 -9.769531 3.203125 -9.210938 3.203125 -8.421875 L 3.203125 -4.359375 C 3.203125 -3.585938 3.257812 -3.035156 3.375 -2.703125 C 3.488281 -2.378906 3.644531 -2.078125 3.84375 -1.796875 C 4.039062 -1.523438 4.273438 -1.296875 4.546875 -1.109375 C 5.085938 -0.722656 5.695312 -0.53125 6.375 -0.53125 C 7.0625 -0.53125 7.628906 -0.609375 8.078125 -0.765625 C 8.523438 -0.929688 8.878906 -1.175781 9.140625 -1.5 C 9.628906 -2.09375 9.875 -3.054688 9.875 -4.390625 L 9.859375 -8.421875 C 9.859375 -9.222656 9.816406 -9.75 9.734375 -10 C 9.660156 -10.25 9.566406 -10.421875 9.453125 -10.515625 C 9.347656 -10.609375 9.210938 -10.65625 9.046875 -10.65625 L 8.640625 -10.625 C 8.441406 -10.625 8.34375 -10.703125 8.34375 -10.859375 C 8.34375 -11.054688 8.492188 -11.15625 8.796875 -11.15625 C 9.097656 -11.15625 9.359375 -11.132812 9.578125 -11.09375 C 9.804688 -11.050781 10.046875 -11.03125 10.296875 -11.03125 L 11.65625 -11.15625 C 12.007812 -11.15625 12.1875 -11.054688 12.1875 -10.859375 C 12.1875 -10.703125 12.085938 -10.625 11.890625 -10.625 L 11.484375 -10.65625 C 11.148438 -10.65625 10.929688 -10.46875 10.828125 -10.09375 C 10.734375 -9.78125 10.6875 -9.222656 10.6875 -8.421875 L 10.671875 -3.96875 C 10.671875 -2.75 10.28125 -1.75 9.5 -0.96875 C 8.71875 -0.1875 7.671875 0.203125 6.359375 0.203125 C 4.941406 0.203125 3.820312 -0.1875 3 -0.96875 C 2.15625 -1.78125 1.734375 -2.910156 1.734375 -4.359375 L 1.734375 -8.421875 C 1.734375 -9.210938 1.691406 -9.734375 1.609375 -9.984375 C 1.523438 -10.242188 1.425781 -10.421875 1.3125 -10.515625 C 1.207031 -10.609375 1.066406 -10.65625 0.890625 -10.65625 L 0.5 -10.625 C 0.300781 -10.625 0.203125 -10.703125 0.203125 -10.859375 C 0.203125 -11.054688 0.351562 -11.15625 0.65625 -11.15625 C 0.957031 -11.15625 1.253906 -11.132812 1.546875 -11.09375 C 1.835938 -11.050781 2.144531 -11.03125 2.46875 -11.03125 C 2.789062 -11.03125 3.097656 -11.050781 3.390625 -11.09375 C 3.691406 -11.132812 3.988281 -11.15625 4.28125 -11.15625 C 4.582031 -11.15625 4.734375 -11.054688 4.734375 -10.859375 C 4.734375 -10.703125 4.640625 -10.625 4.453125 -10.625 Z M 4.453125 -10.625" transform="translate(189.052 178.102)"/></g></g></g><g fill="#BD9D60"><g><g><path d="M 1.09375 0.125 C 0.738281 0.125 0.5625 0.0195312 0.5625 -0.1875 C 0.5625 -0.34375 0.660156 -0.421875 0.859375 -0.421875 L 1.265625 -0.375 C 1.585938 -0.375 1.804688 -0.5625 1.921875 -0.9375 C 2.015625 -1.25 2.0625 -1.804688 2.0625 -2.609375 L 2.0625 -8.421875 C 2.0625 -9.222656 2.019531 -9.75 1.9375 -10 C 1.863281 -10.25 1.773438 -10.421875 1.671875 -10.515625 C 1.566406 -10.609375 1.429688 -10.65625 1.265625 -10.65625 L 0.859375 -10.625 C 0.660156 -10.625 0.5625 -10.703125 0.5625 -10.859375 C 0.5625 -11.054688 0.710938 -11.15625 1.015625 -11.15625 C 1.316406 -11.15625 1.601562 -11.132812 1.875 -11.09375 C 2.144531 -11.050781 2.425781 -11.03125 2.71875 -11.03125 C 3.019531 -11.03125 3.304688 -11.050781 3.578125 -11.09375 C 3.847656 -11.132812 4.195312 -11.15625 4.625 -11.15625 C 5.050781 -11.15625 5.503906 -11.085938 5.984375 -10.953125 C 6.472656 -10.816406 6.890625 -10.625 7.234375 -10.375 C 7.921875 -9.851562 8.265625 -9.160156 8.265625 -8.296875 C 8.265625 -7.335938 7.875 -6.515625 7.09375 -5.828125 C 6.84375 -5.609375 6.5625 -5.421875 6.25 -5.265625 L 8.9375 -1.390625 C 9.238281 -0.941406 9.566406 -0.671875 9.921875 -0.578125 C 10.023438 -0.546875 10.160156 -0.523438 10.328125 -0.515625 C 10.609375 -0.484375 10.75 -0.390625 10.75 -0.234375 C 10.75 -0.078125 10.597656 0 10.296875 0 L 8.703125 0 C 8.328125 0 7.988281 -0.242188 7.6875 -0.734375 L 5.609375 -4.0625 C 5.421875 -4.351562 5.238281 -4.554688 5.0625 -4.671875 C 4.894531 -4.796875 4.632812 -4.859375 4.28125 -4.859375 C 3.925781 -4.859375 3.617188 -4.851562 3.359375 -4.84375 L 3.359375 -2.609375 C 3.359375 -1.773438 3.394531 -1.238281 3.46875 -1 C 3.539062 -0.769531 3.628906 -0.609375 3.734375 -0.515625 C 3.847656 -0.421875 3.992188 -0.375 4.171875 -0.375 L 4.5625 -0.421875 C 4.757812 -0.421875 4.859375 -0.34375 4.859375 -0.1875 C 4.859375 0.0195312 4.679688 0.125 4.328125 0.125 C 4.148438 0.125 3.957031 0.109375 3.75 0.078125 C 3.09375 -0.0234375 2.53125 -0.046875 2.0625 0.015625 C 1.59375 0.0859375 1.269531 0.125 1.09375 0.125 Z M 3.359375 -5.5625 C 3.710938 -5.519531 4.054688 -5.5 4.390625 -5.5 L 4.90625 -5.5 C 5.4375 -5.5 5.882812 -5.679688 6.25 -6.046875 C 6.6875 -6.472656 6.90625 -7.050781 6.90625 -7.78125 C 6.90625 -8.65625 6.632812 -9.347656 6.09375 -9.859375 C 5.59375 -10.347656 4.953125 -10.59375 4.171875 -10.59375 C 3.890625 -10.59375 3.679688 -10.550781 3.546875 -10.46875 C 3.421875 -10.394531 3.359375 -10.265625 3.359375 -10.078125 Z M 3.359375 -5.5625" transform="translate(205.763 178.102)"/></g></g></g><g fill="#BD9D60"><g><g><path d="M 3.609375 0.125 C 3.253906 0.125 3.078125 0.0195312 3.078125 -0.1875 C 3.078125 -0.34375 3.171875 -0.421875 3.359375 -0.421875 L 3.765625 -0.375 C 4.097656 -0.375 4.316406 -0.5625 4.421875 -0.9375 C 4.523438 -1.25 4.578125 -1.804688 4.578125 -2.609375 L 4.578125 -5.484375 L 1.984375 -9.3125 C 1.628906 -9.820312 1.382812 -10.144531 1.25 -10.28125 C 1.007812 -10.476562 0.769531 -10.578125 0.53125 -10.578125 C 0.289062 -10.578125 0.171875 -10.675781 0.171875 -10.875 C 0.171875 -10.945312 0.210938 -11.007812 0.296875 -11.0625 C 0.378906 -11.125 0.515625 -11.15625 0.703125 -11.15625 C 0.898438 -11.15625 1.101562 -11.132812 1.3125 -11.09375 C 1.519531 -11.050781 1.742188 -11.03125 1.984375 -11.03125 L 3.328125 -11.15625 C 3.691406 -11.15625 3.875 -11.066406 3.875 -10.890625 C 3.875 -10.710938 3.71875 -10.625 3.40625 -10.625 C 3.101562 -10.625 2.953125 -10.523438 2.953125 -10.328125 C 2.953125 -10.210938 3.050781 -10.003906 3.25 -9.703125 L 5.53125 -6.25 L 7.265625 -9.015625 C 7.617188 -9.578125 7.8125 -9.914062 7.84375 -10.03125 C 7.875 -10.144531 7.890625 -10.226562 7.890625 -10.28125 C 7.890625 -10.507812 7.71875 -10.625 7.375 -10.625 C 7.03125 -10.625 6.859375 -10.710938 6.859375 -10.890625 C 6.859375 -11.066406 7.035156 -11.15625 7.390625 -11.15625 C 7.585938 -11.15625 7.773438 -11.132812 7.953125 -11.09375 C 8.140625 -11.050781 8.332031 -11.03125 8.53125 -11.03125 C 8.726562 -11.03125 8.910156 -11.050781 9.078125 -11.09375 C 9.253906 -11.132812 9.4375 -11.15625 9.625 -11.15625 C 10.007812 -11.15625 10.203125 -11.0625 10.203125 -10.875 C 10.203125 -10.675781 10.078125 -10.578125 9.828125 -10.578125 C 9.554688 -10.578125 9.34375 -10.507812 9.1875 -10.375 C 8.9375 -10.15625 8.613281 -9.742188 8.21875 -9.140625 L 5.875 -5.609375 L 5.875 -2.609375 C 5.875 -1.773438 5.910156 -1.238281 5.984375 -1 C 6.054688 -0.769531 6.144531 -0.609375 6.25 -0.515625 C 6.351562 -0.421875 6.492188 -0.375 6.671875 -0.375 L 7.078125 -0.421875 C 7.273438 -0.421875 7.375 -0.34375 7.375 -0.1875 C 7.375 0.0195312 7.195312 0.125 6.84375 0.125 C 6.65625 0.125 6.460938 0.109375 6.265625 0.078125 C 5.609375 -0.0234375 5.046875 -0.046875 4.578125 0.015625 C 4.109375 0.0859375 3.785156 0.125 3.609375 0.125 Z M 3.609375 0.125" transform="translate(220.796 178.102)"/></g></g></g><path stroke-linecap="round" transform="matrix(2.99022 0 0 2.93096 110.85 60.68)" fill="none" d="M 0.499527 0.000145181 L 12.511325 0.000145181" stroke="#BD9D60"/><path stroke-linecap="round" transform="matrix(2.99022 0 0 2.93096 225.825 60.68)" fill="none" d="M 0.50008 0.000145181 L 12.510572 0.000145181" stroke="#BD9D60"/></svg>